{"title":"Discovery.Channel.Equator.S01.E01.Power.Of.An.Ocean.P2P4FREE","uid":8534372,"size":249520131,"categoryP":"video","categoryS":"tv_shows","magnet":"?xt=urn:btih:55c3c7452fe1f161ea545f50dc0601a037811d84&amp;dn=Discovery.Channel.Equator.S01.E01.Power.Of.An.Ocean.P2P4FREE&amp;tr=udp%3A%2F%2Ftracker.openbittorrent.com%3A80&amp;tr=udp%3A%2F%2Fopen.demonii.com%3A1337&amp;tr=udp%3A%2F%2Ftracker.coppersurfer.tk%3A6969&amp;tr=udp%3A%2F%2Fexodus.desync.com%3A6969","seeders":1,"leechers":0,"uploader":"P2P4FREE","files":1,"time":1370227377,"description":"General\nComplete name                            : Discovery.Channel.Equator.S01.E01.Power.Of.An.Ocean.P2P4FREE.mp4\nFormat                                   : MPEG-4\nFormat profile                           : Base Media / Version 2\nCodec ID                                 : mp42\nFile size                                : 238 MiB\nDuration                                 : 52mn 10s\nOverall bit rate mode                    : Variable\nOverall bit rate                         : 638 Kbps\n\nVideo\nID                                       : 1\nFormat                                   : AVC\nFormat/Info                              : Advanced Video Codec\nFormat profile                           : &lt;a class=&quot;__cf_email__&quot; href=&quot;/cdn-cgi/l/email-protection&quot; data-cfemail=&quot;e8aa899b8d8481868da8a4dbc6d8&quot;&gt;[email&amp;#160;protected]&lt;/a&gt;&lt;script cf-hash='f9e31' type=&quot;text/javascript&quot;&gt;\n/* &lt;![CDATA[ */!function(){try{var t=&quot;currentScript&quot;in document?document.currentScript:function(){for(var t=document.getElementsByTagName(&quot;script&quot;),e=t.length;e--;)if(t[e].getAttribute(&quot;cf-hash&quot;))return t[e]}();if(t&amp;&amp;t.previousSibling){var e,r,n,i,c=t.previousSibling,a=c.getAttribute(&quot;data-cfemail&quot;);if(a){for(e=&quot;&quot;,r=parseInt(a.substr(0,2),16),n=2;a.length-n;n+=2)i=parseInt(a.substr(n,2),16)^r,e+=String.fromCharCode(i);e=document.createTextNode(e),c.parentNode.replaceChild(e,c)}}}catch(u){}}();/* ]]&gt; */&lt;/script&gt;\nFormat settings, CABAC                   : No\nFormat settings, ReFrames                : 1 frame\nFormat settings, GOP                     : M=1, N=60\nCodec ID                                 : avc1\nCodec ID/Info                            : Advanced Video Coding\nDuration                                 : 52mn 10s\nBit rate                                 : 539 Kbps\nMaximum bit rate                         : 2 399 Kbps\nWidth                                    : 640 pixels\nHeight                                   : 360 pixels\nDisplay aspect ratio                     : 16:9\nFrame rate mode                          : Constant\nFrame rate                               : 30.000 fps\nColor space                              : YUV\nChroma subsampling                       : 4:2:0\nBit depth                                : 8 bits\nScan type                                : Progressive\nBits/(Pixel*Frame)                       : 0.078\nStream size                              : 201 MiB (85%)\nTagged date                              : UTC 2013-02-17 00:16:07\n\nAudio\nID                                       : 2\nFormat                                   : AAC\nFormat/Info                              : Advanced Audio Codec\nFormat profile                           : LC\nCodec ID                                 : 40\nDuration                                 : 52mn 10s\nBit rate mode                            : Variable\nBit rate                                 : 96.0 Kbps\nMaximum bit rate                         : 103 Kbps\nChannel(s)                               : 2 channels\nChannel positions                        : Front: L R\nSampling rate                            : 44.1 KHz\nCompression mode                         : Lossy\nStream size                              : 35.8 MiB (15%)\n\nIMDB : http://www.imdb.com/title/tt2317693/\n\nSCREENS\n---------------------------------- &lt;a href=&quot;\nhttp://share.pho.to/2SAhJ/original&quot; rel=&quot;nofollow&quot; target=&quot;_NEW&quot;&gt;\nhttp://share.pho.to/2SAhJ/original&lt;/a&gt; &lt;a href=&quot;\nhttp://share.pho.to/2SAhe/original&quot; rel=&quot;nofollow&quot; target=&quot;_NEW&quot;&gt;\nhttp://share.pho.to/2SAhe/original&lt;/a&gt; &lt;a href=&quot;\nhttp://share.pho.to/2SAhK/original&quot; rel=&quot;nofollow&quot; target=&quot;_NEW&quot;&gt;\nhttp://share.pho.to/2SAhK/original&lt;/a&gt; &lt;a href=&quot;\nhttp://share.pho.to/2SAhc/original&quot; rel=&quot;nofollow&quot; target=&quot;_NEW&quot;&gt;\nhttp://share.pho.to/2SAhc/original&lt;/a&gt; &lt;a href=&quot;\nhttp://share.pho.to/2SAhd/original&quot; rel=&quot;nofollow&quot; target=&quot;_NEW&quot;&gt;\nhttp://share.pho.to/2SAhd/original&lt;/a&gt; &lt;a href=&quot;\nhttp://share.pho.to/2SAhL/original&quot; rel=&quot;nofollow&quot; target=&quot;_NEW&quot;&gt;\nhttp://share.pho.to/2SAhL/original&lt;/a&gt;\n----------------------------------\n\nenjoy ;)","torrent":{"xt":"urn:btih:55c3c7452fe1f161ea545f50dc0601a037811d84","amp;dn":"Discovery.Channel.Equator.S01.E01.Power.Of.An.Ocean.P2P4FREE","amp;tr":["udp%3A%2F%2Ftracker.openbittorrent.com%3A80","udp%3A%2F%2Fopen.demonii.com%3A1337","udp%3A%2F%2Ftracker.coppersurfer.tk%3A6969","udp%3A%2F%2Fexodus.desync.com%3A6969"],"infoHash":"55c3c7452fe1f161ea545f50dc0601a037811d84","infoHashBuffer":{"type":"Buffer","data":[85,195,199,69,47,225,241,97,234,84,95,80,220,6,1,160,55,129,29,132]},"announce":[],"urlList":[]}}